<svg xmlns="http://www.w3.org/2000/svg" width="800" height="600" viewBox="0 0 800 600">
 <path d="M564.4 512.287c8.26 1.048 14.271.02 18.009-2.977l58.665-47.018c-1.601 1.282-3.644 2.18-6.072 2.732l5.002-4.01c-15.15 12.143-66.859-8.633-141.328-60.55-3.311-2.31-6.63-4.656-9.957-7.035-.124-.089-.246-.175-.368-.264a1028.57 1028.57 0 0 1-9.681-7.015l-.689-.5a1154.082 1154.082 0 0 1-9.444-7.012c-.314-.236-.626-.467-.938-.703a1147.573 1147.573 0 0 1-9.302-7.064c-.351-.269-.7-.533-1.052-.805-3.107-2.387-6.213-4.8-9.313-7.231-.401-.315-.804-.628-1.203-.94-3.079-2.419-6.153-4.86-9.223-7.32-.403-.32-.804-.642-1.205-.961-3.076-2.47-6.145-4.957-9.207-7.458l-1.16-.95a1310.49 1310.49 0 0 1-9.151-7.567c-.354-.294-.708-.587-1.061-.884a1390.626 1390.626 0 0 1-13.801-11.687c-.354-.304-.705-.607-1.06-.91-4.531-3.897-9.034-7.82-13.5-11.76-.39-.344-.78-.688-1.169-1.034a1377.644 1377.644 0 0 1-21.597-19.502l-.475-.436a1427.966 1427.966 0 0 1-8.131-7.576c-.339-.32-.683-.639-1.02-.957a1279.646 1279.646 0 0 1-7.728-7.331c-.449-.431-.901-.861-1.351-1.292a1295.222 1295.222 0 0 1-6.361-6.14c-.427-.416-.849-.83-1.276-1.245a1263.237 1263.237 0 0 1-5.568-5.461c-.411-.406-.826-.812-1.234-1.217-1.83-1.811-3.644-3.617-5.443-5.423-.454-.454-.903-.909-1.355-1.363-1.42-1.428-2.833-2.856-4.235-4.282a913.197 913.197 0 0 1-4.944-5.056c-.537-.553-1.078-1.105-1.611-1.657a986.5 986.5 0 0 1-4.669-4.854c-.013-.013-.025-.024-.035-.036a1028.724 1028.724 0 0 1-8.656-9.167l-.378-.409a972.922 972.922 0 0 1-7.764-8.435 826.077 826.077 0 0 1-5.891-6.547c-.282-.316-.569-.635-.849-.952a817.535 817.535 0 0 1-5.19-5.897c-.379-.435-.754-.868-1.13-1.302a743.018 743.018 0 0 1-3.448-4c-.388-.455-.782-.912-1.168-1.366a702.658 702.658 0 0 1-4.251-5.035c-.379-.453-.748-.903-1.125-1.355a578.204 578.204 0 0 1-2.335-2.819c-.413-.502-.814-1-1.223-1.5-.703-.86-1.408-1.72-2.099-2.576-.441-.546-.87-1.086-1.306-1.63-.674-.841-1.353-1.684-2.015-2.52-.864-1.09-1.72-2.176-2.564-3.256l-.295-.377-.38-.492a454.088 454.088 0 0 1-2.436-3.155c-.354-.462-.702-.922-1.05-1.382a522.402 522.402 0 0 1-1.645-2.175c-.475-.631-.939-1.257-1.404-1.881-.444-.598-.888-1.195-1.324-1.788a404.586 404.586 0 0 1-3.342-4.604l-.213-.303a360.965 360.965 0 0 1-2.956-4.208c-.444-.639-.881-1.274-1.315-1.909-.268-.394-.542-.79-.806-1.182-.179-.265-.35-.522-.527-.786a329.178 329.178 0 0 1-3.093-4.689c-.158-.242-.318-.485-.472-.727a257.656 257.656 0 0 1-4.108-6.605c-.21-.35-.423-.7-.628-1.047-.572-.964-1.13-1.919-1.672-2.863-.02-.035-.041-.068-.059-.102a188.994 188.994 0 0 1-1.851-3.304 167.03 167.03 0 0 1-2.027-3.826c-.079-.156-.163-.312-.241-.467-.613-1.2-1.187-2.37-1.733-3.519l-.303-.636a124.32 124.32 0 0 1-1.415-3.134c-.264-.606-.499-1.19-.741-1.78-.25-.604-.507-1.217-.736-1.805-.221-.566-.414-1.109-.614-1.66-.216-.59-.438-1.186-.631-1.757-.128-.377-.237-.739-.355-1.108a63.24 63.24 0 0 1-.593-1.939c-.108-.381-.205-.75-.302-1.121a50.059 50.059 0 0 1-.661-2.841 39.21 39.21 0 0 1-.28-1.582c-.057-.358-.117-.72-.162-1.068a33.887 33.887 0 0 1-.153-1.531c-.026-.309-.06-.626-.075-.923-.023-.466-.017-.905-.014-1.349 0-.335-.011-.681.003-1.005.018-.374.064-.723.101-1.08.037-.382.065-.772.123-1.135.049-.309.125-.594.19-.889.085-.396.167-.795.279-1.168.156-.523.335-1.029.542-1.507.04-.091.084-.176.125-.264.212-.46.449-.9.71-1.318.041-.063.075-.132.118-.194.288-.443.611-.857.957-1.25.082-.092.166-.182.25-.273.364-.387.747-.76 1.167-1.099l-4.603 3.688c.057-.145.095-.306.154-.448.029-.068.063-.134.095-.203.213-.48.455-.937.72-1.374.049-.078.092-.162.141-.237.297-.462.626-.897.986-1.306.07-.083.145-.16.219-.242.378-.408.778-.799 1.22-1.151l-58.667 47.018c-.437.35-.831.738-1.206 1.14a8.56 8.56 0 0 0-.241.264c-.066.076-.14.144-.202.22-.28.341-.536.703-.777 1.077-.048.075-.089.155-.133.231-.142.228-.284.455-.409.696-.115.221-.215.455-.319.687-.029.067-.064.131-.091.201-.165.386-.315.783-.446 1.198-.031.098-.045.21-.072.31-.11.372-.193.766-.275 1.161-.047.231-.12.44-.16.679-.017.089-.018.191-.03.284-.054.352-.082.723-.116 1.092-.026.28-.073.542-.088.833-.005.104.001.22-.001.327-.013.336-.006.689-.003 1.037.001.305-.017.595-.004.91.007.146.029.305.038.453.02.332.051.674.082 1.017.027.291.036.566.07.863.024.211.07.438.1.653.047.348.102.699.161 1.055.04.242.064.468.109.714.056.299.135.617.197.922.077.365.152.732.238 1.108.042.176.068.34.112.519.101.419.232.86.348 1.292.096.355.184.707.29 1.073.032.114.055.219.089.333.167.564.369 1.154.557 1.735.113.349.212.688.335 1.045.017.049.03.096.046.145.229.667.498 1.363.754 2.05.144.384.269.751.42 1.143.01.026.018.05.029.075.155.398.342.821.508 1.226.321.79.636 1.573.99 2.389l.056.13c.448 1.03.938 2.086 1.441 3.158.102.216.203.433.308.651.099.208.192.412.294.621.452.936.931 1.891 1.426 2.86.113.222.235.452.352.677.284.548.562 1.094.857 1.65a188.547 188.547 0 0 0 3.034 5.493c.531.926 1.078 1.864 1.637 2.808.205.344.419.694.627 1.041.319.537.636 1.069.967 1.61.07.115.147.234.218.351.392.639.794 1.286 1.199 1.932.303.485.603.969.912 1.458.393.618.795 1.244 1.198 1.871.256.395.5.784.759 1.183.089.136.184.274.273.412.455.7.928 1.408 1.399 2.116.343.519.683 1.034 1.034 1.556.453.674.921 1.356 1.386 2.037.329.482.647.956.981 1.441.066.097.135.194.201.29.221.317.448.639.671.96.551.791 1.107 1.584 1.674 2.386.361.511.729 1.024 1.096 1.539.292.409.578.813.875 1.226.135.188.28.381.416.571.609.84 1.23 1.688 1.854 2.539.262.356.513.708.777 1.065l.407.545c.356.481.72.966 1.081 1.449.355.476.702.946 1.063 1.426.203.271.417.547.623.819.372.494.752.991 1.13 1.486.283.372.558.739.845 1.112.271.354.551.713.824 1.066.391.506.78 1.013 1.177 1.522.204.262.401.52.606.784.36.462.731.932 1.096 1.396.422.539.844 1.074 1.271 1.615.146.184.287.366.433.551.466.588.946 1.184 1.419 1.776.393.492.783.982 1.181 1.477l.399.501c.433.536.881 1.08 1.319 1.62.582.717 1.161 1.433 1.751 2.153.127.153.246.304.374.457.337.412.686.828 1.026 1.241.718.871 1.438 1.74 2.168 2.619.206.248.405.492.613.741.312.373.637.751.951 1.124.838 1 1.684 2.003 2.537 3.009.289.338.565.672.854 1.012.188.222.387.447.576.669a670.411 670.411 0 0 0 4.459 5.178l.081.095.014.014a798.775 798.775 0 0 0 5.251 5.972c.198.224.388.443.587.667.167.189.346.382.513.571a879.734 879.734 0 0 0 5.859 6.515c.112.125.218.246.333.371.642.705 1.294 1.416 1.943 2.123.483.527.962 1.054 1.447 1.582.99 1.078 1.995 2.161 3 3.245l.968 1.047c.121.129.239.257.36.389.618.664 1.25 1.333 1.875 1.999.739.791 1.476 1.577 2.223 2.369.598.634 1.206 1.273 1.808 1.907.879.929 1.756 1.856 2.646 2.788l.427.449c.383.401.774.804 1.158 1.204 1.082 1.128 2.164 2.255 3.259 3.389l1.822 1.877a915.33 915.33 0 0 0 3.107 3.187c.351.358.696.715 1.049 1.076.26.265.528.533.788.798 1.51 1.533 3.031 3.072 4.565 4.617.34.339.673.679 1.013 1.019 1.861 1.868 3.742 3.741 5.639 5.62l.445.442a1270.072 1270.072 0 0 0 14.266 13.889c.223.214.441.428.662.641 1.905 1.825 3.831 3.639 5.75 5.456.959.908 1.906 1.819 2.869 2.723a1372.56 1372.56 0 0 0 9.37 8.737c.045.042.092.082.137.123 3.523 3.254 7.071 6.491 10.634 9.712 1.051.949 2.111 1.888 3.164 2.834 2.529 2.272 5.061 4.542 7.607 6.794.286.253.568.51.853.762.655.579 1.32 1.144 1.978 1.722 3.46 3.046 6.931 6.069 10.415 9.075 1.242 1.071 2.481 2.14 3.724 3.207 4.182 3.581 8.373 7.14 12.578 10.653l.359.305c3.474 2.9 6.953 5.776 10.436 8.628.862.707 1.729 1.396 2.593 2.101 2.588 2.108 5.176 4.215 7.767 6.291 1.354 1.085 2.707 2.146 4.061 3.221 2.102 1.672 4.205 3.353 6.306 5.004 1.567 1.229 3.133 2.433 4.701 3.651 1.805 1.403 3.612 2.821 5.415 4.205.08.063.16.124.242.186 2.125 1.632 4.244 3.231 6.365 4.837 1.366 1.034 2.731 2.086 4.095 3.109 2.303 1.729 4.594 3.418 6.89 5.113 1.177.872 2.358 1.761 3.532 2.623 2.54 1.862 5.067 3.683 7.597 5.506.924.664 1.854 1.351 2.777 2.009a984.247 984.247 0 0 0 10.297 7.276c54.295 37.859 98.261 60.488 123.79 63.717z"/>
 <path d="M136.249 334.909c-5.036 6.628-7.151 12.349-6.425 17.084l11.386 74.314c-.311-2.027-.066-4.245.67-6.626l.971 6.337c-2.94-19.191 40.906-53.585 123.102-92.117 3.656-1.714 7.348-3.415 11.071-5.107l.413-.187c3.608-1.639 7.25-3.263 10.915-4.877.26-.114.519-.23.779-.346 3.573-1.57 7.174-3.127 10.795-4.674.36-.153.717-.31 1.077-.462 3.568-1.52 7.16-3.027 10.768-4.522.408-.169.814-.34 1.223-.51 3.621-1.496 7.264-2.979 10.92-4.449.473-.189.943-.381 1.416-.57a1278.78 1278.78 0 0 1 10.95-4.328l1.436-.563c3.675-1.429 7.364-2.843 11.063-4.243.468-.176.934-.354 1.402-.531 3.7-1.396 7.412-2.776 11.129-4.142.432-.159.862-.318 1.295-.476a1374.74 1374.74 0 0 1 17.022-6.108l1.317-.462c5.642-1.977 11.29-3.915 16.935-5.812.493-.166.986-.332 1.48-.496a1385.95 1385.95 0 0 1 12.806-4.219c.479-.155.955-.311 1.433-.464a1402.241 1402.241 0 0 1 14.063-4.461c3.552-1.104 7.093-2.185 10.626-3.254.447-.134.895-.272 1.34-.406a1306.59 1306.59 0 0 1 10.212-3.026c.598-.175 1.196-.351 1.795-.524 2.84-.826 5.674-1.64 8.497-2.44.574-.162 1.144-.32 1.716-.482 2.514-.708 5.02-1.405 7.515-2.091.557-.153 1.116-.309 1.671-.46a1095.46 1095.46 0 0 1 7.417-2.002c.621-.166 1.239-.327 1.859-.492 1.946-.516 3.89-1.025 5.826-1.526a1243.937 1243.937 0 0 1 6.85-1.754c.748-.188 1.496-.38 2.241-.566a941.45 941.45 0 0 1 6.539-1.617c.016-.005.032-.01.047-.013 4.129-1.007 8.218-1.977 12.267-2.912l.544-.124c3.647-.84 7.266-1.653 10.843-2.433.115-.026.23-.05.345-.074a869.47 869.47 0 0 1 8.614-1.828l1.248-.259a802.31 802.31 0 0 1 14.583-2.86c.588-.109 1.181-.221 1.767-.329 2.181-.4 4.346-.791 6.488-1.164.581-.102 1.154-.196 1.735-.295 1.206-.208 2.415-.416 3.608-.613.641-.106 1.273-.206 1.91-.31 1.096-.178 2.194-.358 3.28-.53.693-.109 1.376-.21 2.064-.317 1.066-.163 2.135-.329 3.19-.485 1.376-.203 2.744-.4 4.103-.592l.475-.067.615-.084c1.327-.184 2.646-.362 3.95-.532.577-.076 1.148-.146 1.723-.219.906-.115 1.811-.229 2.705-.337.782-.096 1.558-.185 2.332-.275.739-.085 1.479-.171 2.209-.252 1.909-.211 3.801-.413 5.66-.592l.367-.034a352.66 352.66 0 0 1 5.121-.456c.775-.065 1.545-.125 2.312-.185.475-.036.954-.074 1.427-.107.318-.023.628-.042.943-.063 1.902-.13 3.771-.242 5.608-.335.287-.015.579-.032.865-.045a256.434 256.434 0 0 1 7.773-.255c.407-.007.817-.017 1.22-.021 1.121-.013 2.228-.019 3.317-.017h.117c1.283.004 2.546.021 3.787.049 1.488.034 2.922.089 4.327.157.174.01.352.016.524.024 1.346.069 2.646.159 3.914.259l.703.056c1.175.102 2.313.215 3.421.341.657.074 1.279.163 1.912.248.648.086 1.308.168 1.933.265.6.092 1.167.197 1.742.299.62.108 1.246.213 1.839.332.392.079.759.165 1.138.247.673.146 1.338.296 1.976.457.383.096.752.197 1.122.298.583.16 1.151.325 1.704.496.367.116.732.231 1.086.352.522.176 1.02.359 1.51.548.339.129.682.258 1.006.395.488.203.948.417 1.402.632.281.132.571.262.837.397.415.212.792.438 1.176.662.29.167.596.331.868.504.315.203.595.418.885.628.313.224.637.442.922.674.243.197.451.405.675.609.3.271.604.542.871.825.376.397.725.805 1.035 1.224.059.08.11.16.166.239.293.415.555.839.785 1.274.034.067.077.131.11.199.239.471.436.958.604 1.454.039.116.075.234.111.352.154.51.285 1.026.368 1.561-.299-1.943-.596-3.887-.894-5.83.098.121.218.234.312.357.043.06.084.122.128.184.31.424.583.863.829 1.311.045.081.096.16.137.241.251.488.462.992.638 1.506.036.102.066.206.1.31.164.533.303 1.074.388 1.632l-11.386-74.315a11.473 11.473 0 0 0-.385-1.615c-.035-.114-.069-.228-.108-.34-.032-.094-.055-.192-.089-.285a11.314 11.314 0 0 0-.545-1.212c-.04-.078-.089-.154-.132-.23-.128-.237-.253-.473-.398-.702-.135-.211-.287-.415-.437-.62-.043-.059-.081-.121-.128-.179a13.451 13.451 0 0 0-.814-.986c-.069-.076-.16-.144-.232-.218-.267-.28-.566-.549-.867-.818-.176-.157-.32-.324-.508-.479-.069-.058-.157-.11-.231-.167-.277-.223-.585-.433-.888-.646-.229-.163-.434-.335-.678-.493-.088-.057-.191-.108-.282-.164-.285-.179-.594-.35-.897-.522-.263-.151-.506-.311-.785-.458-.13-.067-.278-.128-.41-.194-.297-.149-.609-.292-.921-.437-.266-.123-.509-.253-.784-.372-.194-.084-.414-.158-.615-.24a36.713 36.713 0 0 0-.993-.388c-.229-.086-.438-.179-.673-.262-.286-.102-.602-.192-.897-.291-.354-.117-.71-.235-1.078-.348-.174-.052-.328-.111-.505-.163-.414-.121-.861-.229-1.294-.344-.355-.095-.703-.194-1.072-.286-.115-.029-.218-.061-.334-.089-.572-.138-1.184-.258-1.781-.386-.358-.077-.703-.16-1.072-.232-.052-.01-.098-.022-.149-.033-.69-.135-1.428-.25-2.152-.372-.404-.067-.786-.143-1.199-.208-.028-.003-.053-.009-.08-.013-.422-.064-.881-.114-1.314-.173-.845-.116-1.681-.236-2.564-.336l-.14-.017a121.874 121.874 0 0 0-3.456-.33c-.237-.02-.477-.041-.717-.06-.229-.017-.453-.038-.686-.055a142.048 142.048 0 0 0-3.189-.195l-.762-.034c-.617-.029-1.228-.061-1.858-.083a208.63 208.63 0 0 0-2.313-.068 200.79 200.79 0 0 0-3.846-.049l-.114-.002c-1.068-.003-2.154.001-3.25.014-.4.005-.811.016-1.215.022-.624.009-1.245.017-1.877.033-.137.002-.278.01-.414.012-.749.02-1.511.046-2.273.073-.571.02-1.14.038-1.719.06-.731.03-1.475.067-2.218.102-.472.024-.93.041-1.405.065-.162.008-.329.021-.493.03-.834.044-1.683.1-2.531.153-.623.037-1.237.075-1.865.118-.81.055-1.634.119-2.456.182-.583.043-1.152.082-1.739.129l-.352.03c-.385.032-.779.068-1.168.101-.96.082-1.926.166-2.903.257-.622.057-1.252.119-1.88.18-.501.049-.994.094-1.499.145-.23.023-.471.052-.703.075a556.51 556.51 0 0 0-3.127.336c-.438.048-.868.09-1.31.14l-.676.08c-.595.067-1.196.14-1.795.211-.591.07-1.17.136-1.767.208-.336.041-.684.087-1.021.13-.613.076-1.233.156-1.852.235-.463.059-.919.113-1.385.175-.441.058-.893.122-1.336.181-.634.085-1.268.169-1.906.257-.328.046-.652.087-.981.133-.581.081-1.173.168-1.758.252l-2.034.293-.693.099c-.742.11-1.498.228-2.248.342-.623.093-1.243.186-1.87.284-.213.033-.421.062-.633.095-.681.106-1.376.222-2.063.332-.912.145-1.821.289-2.74.44-.195.033-.386.061-.582.094-.525.087-1.061.18-1.588.269-1.113.186-2.227.375-3.352.569-.318.054-.63.105-.949.16-.478.083-.97.175-1.449.261-1.285.226-2.576.457-3.874.693-.438.081-.864.153-1.304.233-.286.052-.58.111-.867.165a746.117 746.117 0 0 0-6.836 1.295l-.02.004c-2.57.5-5.175 1.025-7.798 1.562-.292.06-.577.115-.872.175-.247.05-.504.108-.751.159a924.58 924.58 0 0 0-8.571 1.816c-.164.037-.322.066-.489.103-.93.203-1.873.413-2.81.622-.697.153-1.394.305-2.093.461-1.428.319-2.869.646-4.311.976-.465.106-.925.208-1.391.315a43.15 43.15 0 0 1-.517.118c-.884.204-1.78.416-2.668.625-1.055.245-2.105.489-3.164.741-.848.201-1.705.407-2.556.611-1.245.296-2.485.593-3.737.898l-.604.145c-.538.131-1.082.269-1.621.401-1.518.373-3.035.747-4.563 1.128l-2.537.64c-1.435.361-2.87.727-4.313 1.098l-1.457.371c-.359.093-.726.191-1.084.283-2.083.541-4.176 1.089-6.282 1.646-.465.125-.925.243-1.389.367-2.547.678-5.11 1.37-7.686 2.074l-.607.165a1184.832 1184.832 0 0 0-19.16 5.41c-.296.086-.591.167-.887.253-2.531.737-5.066 1.497-7.6 2.251-1.266.376-2.527.741-3.792 1.124a1339.925 1339.925 0 0 0-12.251 3.746l-.177.057a1320.943 1320.943 0 0 0-13.727 4.354c-1.348.435-2.69.884-4.036 1.323a1370.859 1370.859 0 0 0-9.688 3.191c-.362.121-.726.237-1.086.357-.829.279-1.65.572-2.48.851a1424.695 1424.695 0 0 0-13.067 4.482c-1.547.541-3.094 1.079-4.638 1.623a1384.713 1384.713 0 0 0-15.517 5.566c-.147.053-.296.104-.443.158a1361.338 1361.338 0 0 0-12.688 4.724c-1.044.394-2.075.8-3.117 1.196-3.119 1.188-6.238 2.375-9.331 3.581-1.617.629-3.212 1.271-4.821 1.906-2.499.985-5.006 1.966-7.485 2.96-1.85.742-3.675 1.497-5.513 2.244-2.118.862-4.249 1.718-6.35 2.586-.094.039-.187.078-.281.119-2.477 1.024-4.92 2.06-7.372 3.093-1.579.665-3.173 1.323-4.739 1.993-2.648 1.128-5.259 2.269-7.875 3.408-1.342.584-2.703 1.162-4.037 1.749a1079.716 1079.716 0 0 0-8.566 3.826c-1.039.467-2.097.93-3.13 1.399a986.916 986.916 0 0 0-11.449 5.28c-59.938 28.1-101.518 54.86-117.08 75.355z"/>
 <path d="M503.939 52.803c-3.224-7.675-7.118-12.368-11.583-14.107L422.305 11.4c1.91.745 3.708 2.064 5.403 3.893l-5.975-2.327c18.092 7.049 25.954 62.218 18.226 152.668-.344 4.022-.716 8.071-1.113 12.141-.016.15-.028.3-.043.451a1141.65 1141.65 0 0 1-1.234 11.891c-.031.283-.061.565-.09.848-.427 3.879-.88 7.776-1.351 11.686-.046.388-.091.775-.139 1.164-.468 3.85-.958 7.713-1.468 11.586-.057.438-.112.875-.17 1.314a1246.77 1246.77 0 0 1-1.606 11.682l-.214 1.512c-.556 3.875-1.134 7.759-1.727 11.646l-.231 1.524c-.6 3.897-1.22 7.799-1.856 11.702-.081.493-.159.986-.241 1.48-.641 3.902-1.302 7.806-1.978 11.708l-.234 1.36a1383.677 1383.677 0 0 1-3.223 17.796l-.257 1.371a1391.772 1391.772 0 0 1-3.436 17.572c-.103.511-.205 1.021-.31 1.53a1368.215 1368.215 0 0 1-3.063 14.673c-.989 4.614-2 9.212-3.028 13.78l-.141.63a1427.02 1427.02 0 0 1-2.494 10.829c-.106.454-.211.911-.318 1.362-.818 3.473-1.647 6.923-2.485 10.357l-.443 1.816c-.705 2.873-1.418 5.733-2.136 8.578-.146.578-.294 1.15-.44 1.729-.645 2.529-1.293 5.048-1.946 7.554-.146.558-.291 1.12-.438 1.677a1119.98 1119.98 0 0 1-1.974 7.425c-.167.619-.336 1.235-.504 1.854a1336.5 1336.5 0 0 1-2.239 8.149c-.417 1.495-.837 2.986-1.257 4.47-.211.742-.42 1.486-.631 2.225a996.473 996.473 0 0 1-1.868 6.471l-.014.048a1003.73 1003.73 0 0 1-3.611 12.079l-.165.533a955.592 955.592 0 0 1-3.422 10.941 872.2 872.2 0 0 1-2.725 8.375l-.399 1.211c-.833 2.51-1.67 4.991-2.512 7.445l-.563 1.628a770.915 770.915 0 0 1-1.74 4.986c-.2.564-.399 1.133-.599 1.695a725.206 725.206 0 0 1-2.235 6.2c-.203.556-.408 1.098-.612 1.65-.424 1.149-.848 2.3-1.274 3.433-.229.607-.458 1.204-.687 1.808-.393 1.039-.786 2.08-1.181 3.105-.252.656-.506 1.298-.758 1.948-.392 1.003-.782 2.011-1.174 3.004a550.799 550.799 0 0 1-1.54 3.849l-.179.445-.235.574a490.424 490.424 0 0 1-1.515 3.688c-.223.539-.448 1.068-.672 1.601-.354.843-.707 1.683-1.061 2.513-.308.726-.618 1.44-.927 2.156-.296.683-.591 1.365-.887 2.04a403.103 403.103 0 0 1-2.316 5.196c-.051.113-.103.223-.153.335a386.364 386.364 0 0 1-3.162 6.757c-.208.431-.414.864-.621 1.289-.14.287-.278.564-.417.85a317.671 317.671 0 0 1-2.514 5.024c-.131.256-.262.517-.394.772a271.987 271.987 0 0 1-3.666 6.858c-.197.355-.395.717-.592 1.067a211.557 211.557 0 0 1-3.639 6.24 178.936 178.936 0 0 1-2.3 3.667c-.095.146-.188.297-.283.441a136.663 136.663 0 0 1-4.587 6.634c-.394.532-.782 1.027-1.171 1.532-.399.519-.8 1.048-1.195 1.54-.38.474-.754.913-1.13 1.36-.403.482-.809.973-1.208 1.427-.263.299-.521.574-.781.86a61.843 61.843 0 0 1-1.383 1.483 53.15 53.15 0 0 1-.82.823 51.63 51.63 0 0 1-2.129 1.994 40.32 40.32 0 0 1-1.229 1.032c-.283.229-.565.461-.846.675-.42.321-.835.612-1.25.898-.254.176-.511.363-.762.526-.391.253-.775.467-1.161.687-.29.168-.583.35-.871.499-.333.172-.659.307-.987.454-.349.158-.7.329-1.044.46-.292.111-.576.188-.864.28-.385.124-.771.252-1.151.341-.531.127-1.059.225-1.578.285-.097.011-.193.015-.291.024-.504.045-1.003.06-1.496.042-.076-.003-.152.001-.228-.003a11.13 11.13 0 0 1-1.921-.285 11.272 11.272 0 0 1-1.536-.461c1.832.713 3.664 1.428 5.495 2.142-.154.023-.311.07-.465.09-.074.01-.148.013-.224.02-.522.056-1.039.074-1.549.063-.092-.003-.186.002-.277-.003a10.887 10.887 0 0 1-1.942-.27 11.197 11.197 0 0 1-1.607-.479l70.052 27.298a11.27 11.27 0 0 0 1.591.474c.116.026.231.055.349.076.098.02.194.049.292.065.435.072.876.113 1.321.134.088.004.179 0 .266.001.269.009.536.019.807.007.25-.012.502-.043.755-.067.073-.01.146-.012.219-.021a13.6 13.6 0 0 0 1.261-.212c.1-.023.204-.067.304-.093.377-.092.761-.218 1.143-.343.224-.073.442-.116.667-.2.086-.031.174-.082.261-.116.332-.13.668-.291 1.004-.446.255-.118.507-.208.765-.339.094-.049.19-.114.284-.164.298-.157.6-.339.9-.516.263-.154.522-.283.789-.451.123-.079.249-.177.373-.259.277-.182.559-.382.839-.579.238-.169.473-.314.713-.493.17-.127.344-.281.516-.413.276-.214.555-.438.833-.667.189-.155.373-.289.563-.45.23-.198.467-.427.7-.633.279-.248.559-.497.84-.76.132-.124.262-.229.394-.355.313-.298.629-.633.944-.947.261-.262.521-.514.785-.788.081-.084.161-.158.243-.243.405-.427.815-.896 1.224-1.351.247-.272.49-.529.737-.813l.104-.112c.462-.531.931-1.111 1.397-1.677.261-.317.517-.61.779-.936.018-.023.035-.041.053-.063.266-.334.538-.708.806-1.053.523-.673 1.044-1.336 1.572-2.052.029-.039.058-.073.087-.112.666-.903 1.338-1.855 2.013-2.828.137-.196.272-.392.41-.592.131-.189.26-.372.391-.565.584-.859 1.173-1.752 1.764-2.664.136-.21.273-.431.409-.644.334-.52.667-1.032 1.002-1.568a195.651 195.651 0 0 0 3.181-5.276l.06-.099c.537-.922 1.074-1.865 1.613-2.821.195-.348.391-.709.587-1.062.305-.547.608-1.086.911-1.643.064-.12.13-.246.196-.365.357-.659.716-1.332 1.074-2.004.268-.506.536-1.007.806-1.52.34-.648.681-1.311 1.021-1.973.214-.419.431-.824.646-1.248.074-.146.146-.296.22-.442.38-.745.756-1.509 1.135-2.27.277-.557.554-1.109.829-1.673.358-.73.716-1.477 1.071-2.219.253-.526.506-1.039.759-1.571.05-.104.1-.213.148-.318.165-.35.331-.708.497-1.062.41-.874.818-1.752 1.229-2.643.263-.568.524-1.145.785-1.719.207-.459.416-.909.624-1.372.095-.211.19-.433.286-.646.424-.946.848-1.909 1.273-2.875.178-.404.355-.798.533-1.206l.27-.624c.237-.549.477-1.106.714-1.66.234-.547.469-1.082.703-1.635.133-.312.266-.634.397-.947.242-.571.482-1.146.723-1.724.18-.429.361-.852.541-1.286.171-.411.34-.834.511-1.247.243-.592.487-1.183.729-1.779.126-.308.251-.607.376-.917.221-.544.44-1.1.661-1.648l.763-1.908.261-.65c.275-.698.552-1.411.828-2.117.231-.587.46-1.169.689-1.762.078-.2.157-.395.233-.595.249-.644.496-1.304.744-1.952.33-.863.661-1.723.989-2.595.069-.185.14-.364.21-.55.187-.498.373-1.009.561-1.51.396-1.058.788-2.116 1.185-3.188.111-.303.223-.598.335-.901.166-.456.333-.929.498-1.386.446-1.226.892-2.459 1.337-3.701.149-.42.3-.826.449-1.247.099-.273.194-.557.291-.832a711.612 711.612 0 0 0 2.256-6.452l.042-.116.005-.02c.853-2.475 1.7-4.993 2.546-7.533.095-.283.19-.558.285-.843.08-.24.158-.49.239-.729a968.246 968.246 0 0 0 2.711-8.33c.051-.162.104-.314.155-.476.29-.907.579-1.829.867-2.744.216-.683.432-1.359.647-2.044.438-1.396.873-2.808 1.309-4.221l.423-1.361.157-.507c.265-.867.529-1.75.793-2.623.315-1.036.628-2.067.94-3.111.251-.834.499-1.678.748-2.519.365-1.225.729-2.448 1.091-3.685l.177-.596c.155-.53.31-1.072.463-1.604.436-1.499.87-3.002 1.305-4.516a1674.032 1674.032 0 0 0 2.328-8.249c.101-.357.197-.724.298-1.081.572-2.074 1.145-4.161 1.715-6.263l.376-1.387c.687-2.544 1.369-5.11 2.047-7.692l.161-.607c.438-1.667.873-3.341 1.307-5.024a1287.93 1287.93 0 0 0 3.588-14.274c.074-.301.151-.597.225-.896.628-2.561 1.237-5.134 1.851-7.706.307-1.284.622-2.56.923-3.847.979-4.15 1.94-8.31 2.881-12.481l.039-.181c1.056-4.679 2.087-9.369 3.094-14.065.297-1.385.579-2.772.872-4.157.703-3.327 1.402-6.653 2.08-9.985.076-.374.158-.746.233-1.119.174-.856.33-1.715.504-2.573a1434.23 1434.23 0 0 0 3.564-18.386 1340.923 1340.923 0 0 0 2.938-16.22c.027-.154.058-.309.085-.463.774-4.458 1.526-8.909 2.253-13.35.181-1.101.346-2.196.523-3.296a1213.48 1213.48 0 0 0 1.563-9.872c.264-1.715.506-3.417.761-5.128.396-2.656.801-5.317 1.179-7.962.282-1.973.542-3.931.813-5.897.313-2.264.637-4.538.935-6.792.015-.101.026-.2.038-.302.352-2.657.677-5.291 1.008-7.932.212-1.699.44-3.409.645-5.1.346-2.857.662-5.688.983-8.523.167-1.454.346-2.922.505-4.37.343-3.131.655-6.231.97-9.332.114-1.133.243-2.281.353-3.411.413-4.217.798-8.403 1.152-12.556 5.639-65.953 3.254-115.345-6.714-139.068z"/>
 <path fill="#012f49" d="M584.988 506.347l-.019.032c-.046.076-.086.154-.135.23a11.083 11.083 0 0 1-1.216 1.556c-.376.406-.771.795-1.209 1.146l58.665-47.018c.438-.352.833-.741 1.21-1.145.079-.086.158-.17.235-.258.065-.075.139-.145.204-.224.28-.339.536-.703.776-1.077.049-.075.089-.153.136-.23.14-.229.284-.457.409-.698.112-.219.213-.451.315-.681.029-.07.064-.135.095-.203.162-.387.313-.786.444-1.201.03-.096.044-.207.074-.306.108-.374.191-.769.274-1.164.049-.231.119-.439.16-.679.015-.092.017-.193.03-.285.052-.346.081-.71.114-1.072.027-.288.073-.555.09-.854.006-.106-.004-.225 0-.333.013-.331.007-.677.003-1.019-.001-.309.017-.604.004-.923-.007-.145-.027-.3-.036-.444-.018-.337-.053-.683-.084-1.026-.026-.29-.035-.565-.07-.862-.025-.21-.069-.437-.1-.649a30.901 30.901 0 0 0-.158-1.045c-.04-.244-.064-.477-.111-.725-.056-.305-.136-.63-.2-.939-.075-.354-.147-.709-.231-1.073-.042-.181-.068-.353-.114-.536-.102-.42-.233-.863-.349-1.291-.097-.361-.186-.711-.291-1.077-.033-.112-.056-.218-.089-.329-.172-.585-.381-1.194-.576-1.796-.104-.32-.193-.629-.305-.955-.021-.059-.036-.115-.056-.175-.244-.706-.526-1.441-.803-2.174-.127-.34-.236-.667-.371-1.01-.012-.028-.02-.055-.029-.084-.165-.421-.364-.868-.541-1.296-.309-.762-.612-1.517-.953-2.304-.021-.046-.037-.092-.059-.14a126.401 126.401 0 0 0-1.44-3.152l-.31-.657c-.101-.207-.192-.409-.293-.617a149.75 149.75 0 0 0-1.431-2.865c-.108-.217-.226-.437-.337-.653a150.47 150.47 0 0 0-.866-1.666 185.434 185.434 0 0 0-2.959-5.359c-.025-.044-.048-.088-.072-.133a233.086 233.086 0 0 0-1.658-2.84c-.165-.276-.338-.56-.503-.84-.356-.59-.705-1.18-1.071-1.778-.078-.128-.163-.259-.241-.39-.36-.588-.733-1.184-1.104-1.78-.333-.534-.665-1.069-1.007-1.61-.373-.588-.758-1.183-1.139-1.775-.266-.416-.523-.824-.795-1.241-.087-.137-.183-.276-.273-.414-.482-.739-.979-1.487-1.479-2.233-.306-.462-.607-.921-.918-1.387-.545-.81-1.106-1.63-1.671-2.45-.245-.362-.484-.718-.734-1.08l-.15-.217c-.278-.401-.564-.809-.847-1.212-.518-.743-1.037-1.488-1.569-2.239l-.99-1.388c-.32-.45-.635-.895-.96-1.347-.151-.209-.312-.425-.464-.635-.594-.822-1.202-1.65-1.811-2.481-.26-.354-.51-.703-.772-1.059a61.8 61.8 0 0 1-.382-.512c-.381-.516-.771-1.034-1.158-1.552-.338-.453-.67-.903-1.013-1.356-.198-.263-.401-.529-.602-.794-.384-.508-.772-1.02-1.164-1.531-.277-.365-.549-.727-.831-1.093l-.005.003.005-.003c-.261-.343-.532-.689-.799-1.031a311.94 311.94 0 0 0-1.202-1.559c-.203-.262-.401-.521-.606-.784-.369-.473-.749-.95-1.121-1.427-.411-.521-.818-1.044-1.235-1.569-.148-.189-.293-.376-.444-.565-.45-.569-.917-1.147-1.374-1.721-.42-.524-.836-1.048-1.261-1.577-.124-.152-.243-.304-.365-.457-.406-.503-.824-1.01-1.234-1.515a690.668 690.668 0 0 0-1.843-2.267l-.366-.449c-.318-.39-.649-.783-.972-1.172-.76-.923-1.522-1.847-2.297-2.776-.182-.22-.358-.434-.539-.651-.271-.322-.553-.652-.822-.975-.916-1.089-1.837-2.184-2.771-3.283-.254-.299-.498-.592-.751-.891-.171-.198-.349-.401-.518-.602a883.436 883.436 0 0 0-4.467-5.189c-.046-.05-.086-.101-.132-.15l-.022-.028a824.944 824.944 0 0 0-5.201-5.911c-.212-.241-.415-.477-.629-.718l-.545-.604a879.59 879.59 0 0 0-5.851-6.508l-.313-.345c-.173-.192-.358-.389-.533-.582-1.365-1.498-2.773-3.015-4.166-4.524l6.499 21.853 13.689 46.044.128.428-.247.072-.062.25-.433-.1-46.722-11.166-28.868-6.899c.566.621 1.157 1.249 1.721 1.868.107.114.208.23.313.347a911.12 911.12 0 0 1 5.745 6.383c.325.37.657.739.982 1.104a793.177 793.177 0 0 1 5.112 5.81c.407.467.808.93 1.212 1.396a717.457 717.457 0 0 1 3.374 3.914c.401.47.807.941 1.206 1.409a732.75 732.75 0 0 1 4.177 4.946c.799.956 1.584 1.907 2.368 2.856.359.435.725.872 1.079 1.303.633.769 1.249 1.528 1.87 2.292.5.615 1.007 1.233 1.503 1.844.553.685 1.091 1.361 1.637 2.042.543.679 1.091 1.359 1.624 2.033a526.772 526.772 0 0 1 5.807 7.446c.247.322.485.641.731.962a422.899 422.899 0 0 1 3.227 4.291 422.928 422.928 0 0 1 4.712 6.45c.166.23.322.457.488.688a391.542 391.542 0 0 1 4.154 5.96c.213.313.43.626.639.937.231.341.451.674.679 1.014 1.006 1.5 1.985 2.981 2.935 4.447.188.293.384.588.571.878a276.975 276.975 0 0 1 4.182 6.732c.16.268.324.537.481.804a184.093 184.093 0 0 1 1.801 3.083 172.567 172.567 0 0 1 3.893 7.164l.187.357a146.892 146.892 0 0 1 2.04 4.167c.501 1.067.973 2.113 1.416 3.137.263.602.496 1.18.737 1.765.256.618.52 1.242.752 1.843 6.092 14.713 6.031 21.783 2.921 26.348z"/>
 <path fill="#5e3702" d="M131.102 355.708l-.019-.031c-.043-.077-.092-.152-.132-.231-.251-.486-.46-.989-.636-1.502-.038-.108-.07-.219-.104-.33a11.14 11.14 0 0 1-.386-1.62l11.386 74.314c.085.555.223 1.092.386 1.62.035.111.067.223.106.332.032.095.056.193.091.289.154.413.34.815.545 1.211.04.08.089.153.132.231.128.236.253.474.399.703.133.208.284.41.432.614.045.062.085.124.129.184.253.335.523.665.817.986.069.074.158.142.228.216.27.282.57.551.871.82.175.157.322.324.508.479.071.059.159.111.231.169.273.217.575.426.872.635.236.168.444.343.693.505.091.058.197.108.289.168.28.175.583.343.88.512.269.151.515.314.798.463.128.067.273.126.404.191.3.151.615.295.93.44.264.121.507.252.781.371.195.082.412.156.612.238.32.131.65.26.985.385.232.087.445.182.684.267.292.104.613.196.914.296.345.112.687.228 1.044.336.179.055.34.116.523.169.413.122.863.229 1.292.344.359.097.708.194 1.078.286.113.027.216.061.33.088.592.144 1.224.269 1.843.4.33.068.642.146.979.212.062.012.119.027.181.039.733.143 1.512.266 2.283.393.358.06.695.128 1.06.184.03.004.057.011.087.015.447.068.934.12 1.393.181.814.114 1.62.229 2.471.327.052.004.1.014.151.02a133.496 133.496 0 0 0 4.174.387c.229.019.45.039.681.056 1.04.075 2.109.14 3.196.195.242.014.491.021.735.033.621.03 1.237.06 1.875.083.76.026 1.53.052 2.313.069 1.246.028 2.519.043 3.81.048.051 0 .1.001.15.004a227.44 227.44 0 0 0 3.289-.016c.322-.004.654-.013.979-.017.689-.013 1.375-.02 2.075-.037.151-.003.306-.012.458-.015.69-.018 1.392-.044 2.093-.066.631-.021 1.259-.04 1.899-.067.694-.028 1.401-.063 2.107-.098.492-.023.975-.042 1.472-.068.162-.008.332-.02.495-.029.881-.047 1.777-.105 2.674-.162.553-.035 1.1-.066 1.659-.104.974-.066 1.966-.143 2.958-.22.437-.033.863-.061 1.303-.097.087-.007.176-.016.263-.022.486-.039.982-.085 1.472-.127.903-.077 1.807-.155 2.724-.24l1.696-.162c.551-.055 1.093-.103 1.647-.158.257-.028.524-.058.782-.085 1.009-.104 2.03-.216 3.054-.327.438-.048.864-.09 1.304-.14.209-.025.423-.052.633-.074.637-.074 1.281-.151 1.923-.228.562-.066 1.116-.129 1.682-.198l.987-.125c.632-.078 1.27-.16 1.908-.242.456-.059.904-.112 1.363-.173l-.001-.005.001.005c.426-.056.863-.117 1.293-.176l1.951-.263.981-.133c.594-.084 1.198-.173 1.796-.258.658-.095 1.313-.188 1.976-.285.239-.034.474-.066.713-.103.719-.105 1.451-.22 2.176-.331.666-.1 1.327-.198 1.997-.303l.578-.087c.638-.1 1.287-.209 1.929-.311.958-.152 1.916-.306 2.885-.464.192-.031.38-.06.572-.092.496-.081 1.003-.172 1.5-.255 1.18-.197 2.361-.396 3.554-.602l.834-.142c.414-.072.839-.152 1.254-.225a712.47 712.47 0 0 0 4.229-.758l1.146-.206c.258-.047.523-.1.78-.146 2.223-.413 4.461-.834 6.728-1.274.066-.014.13-.023.196-.037.012-.002.023-.006.036-.007a823.86 823.86 0 0 0 7.72-1.547c.314-.063.62-.122.937-.188.262-.055.534-.114.797-.168a855.667 855.667 0 0 0 8.56-1.815c.153-.033.301-.063.455-.097.253-.055.516-.117.771-.171 1.979-.434 3.998-.896 6.002-1.346l-22.175-5.298-46.72-11.166-.435-.104.06-.25-.186-.178.305-.324 33.03-34.879 20.41-21.552c-.822.181-1.66.378-2.478.556-.153.035-.304.065-.457.099a945.09 945.09 0 0 1-8.401 1.784c-.483.098-.968.2-1.448.3-2.551.523-5.079 1.03-7.586 1.521-.607.12-1.209.235-1.814.352-1.703.33-3.396.652-5.077.965-.609.112-1.219.228-1.823.34-2.142.394-4.269.777-6.374 1.145-1.228.215-2.443.418-3.657.623-.555.094-1.117.192-1.668.284-.981.162-1.948.316-2.919.474-.783.125-1.572.254-2.349.378-.869.136-1.725.264-2.587.397-.859.129-1.722.266-2.572.391-3.172.468-6.289.905-9.352 1.304-.403.053-.799.101-1.199.152a483.36 483.36 0 0 1-3.341.417c-.667.08-1.327.156-1.989.233a392.985 392.985 0 0 1-7.943.855c-.283.029-.557.052-.839.079a392.879 392.879 0 0 1-7.238.618c-.377.026-.756.059-1.131.086-.41.028-.81.053-1.217.08-1.802.122-3.575.229-5.319.318l-1.045.054a257.369 257.369 0 0 1-7.922.257c-.312.004-.627.013-.938.016a194.711 194.711 0 0 1-7.3-.031 170.597 170.597 0 0 1-4.42-.161c-.133-.008-.271-.012-.403-.018a141.804 141.804 0 0 1-4.629-.318c-1.176-.1-2.316-.214-3.425-.34-.653-.075-1.27-.162-1.898-.245-.662-.089-1.333-.172-1.969-.271-15.793-2.087-21.885-5.674-24.282-10.65z"/>
 <path fill="#2d4900" d="M488.501 37.946l.036-.002c.089.002.178-.003.267.002.547.025 1.085.095 1.617.2.114.022.226.049.339.075.539.123 1.073.271 1.597.476l-70.051-27.296a11.316 11.316 0 0 0-1.597-.476c-.112-.025-.227-.053-.341-.074-.099-.02-.195-.049-.296-.065a11.11 11.11 0 0 0-1.321-.134c-.089-.004-.178 0-.267-.002-.269-.007-.536-.017-.809-.005-.247.011-.498.041-.748.067-.075.008-.148.012-.224.021-.417.052-.838.12-1.263.214-.099.021-.2.065-.301.09-.379.092-.761.218-1.146.344-.224.074-.442.116-.669.201-.086.032-.175.082-.261.116-.325.128-.656.286-.985.437-.263.121-.52.213-.785.349-.095.049-.193.115-.289.166-.292.155-.589.334-.883.507-.267.156-.53.288-.801.459-.123.077-.245.174-.367.254-.281.184-.563.385-.847.585-.238.167-.472.313-.712.492-.168.126-.342.278-.512.41-.274.212-.55.433-.825.661-.192.157-.381.294-.574.458-.235.201-.476.433-.713.644-.271.241-.54.481-.813.735-.137.127-.271.238-.408.369-.312.297-.63.632-.944.948-.263.263-.522.515-.786.789-.081.085-.16.157-.241.243-.42.441-.845.925-1.268 1.396-.225.25-.447.483-.674.742-.041.047-.082.089-.123.136-.49.564-.987 1.177-1.482 1.781-.23.28-.458.538-.689.827-.018.024-.036.044-.056.067-.281.353-.57.749-.854 1.116-.504.649-1.007 1.289-1.517 1.978-.03.042-.062.079-.092.121-.665.903-1.336 1.852-2.011 2.823l-.413.598c-.129.189-.259.37-.389.562-.586.863-1.175 1.757-1.767 2.67-.132.203-.264.415-.396.62-.336.524-.671 1.041-1.01 1.582-.403.645-.808 1.3-1.215 1.968a206.008 206.008 0 0 0-1.948 3.275l-.077.129c-.543.933-1.088 1.886-1.631 2.855-.158.281-.317.572-.475.856-.335.603-.67 1.201-1.006 1.816-.072.131-.144.271-.216.403-.33.606-.659 1.227-.989 1.846-.297.558-.595 1.112-.892 1.679-.323.616-.646 1.246-.969 1.874-.226.438-.452.864-.677 1.309-.074.145-.148.297-.222.443-.399.787-.797 1.592-1.196 2.396-.246.496-.493.986-.739 1.489-.43.877-.859 1.774-1.289 2.672-.189.395-.379.778-.568 1.177l-.112.239c-.208.441-.417.893-.626 1.337-.385.82-.77 1.644-1.154 2.479-.235.512-.471 1.032-.707 1.551-.229.503-.457.997-.686 1.505-.106.236-.213.483-.319.72a493.79 493.79 0 0 0-1.243 2.809c-.177.402-.354.792-.531 1.199-.084.192-.168.392-.252.585-.255.588-.51 1.184-.765 1.779-.223.52-.446 1.031-.669 1.555-.128.303-.256.614-.385.917-.248.587-.496 1.18-.744 1.773-.177.424-.354.839-.532 1.267l.005.002v.001l-.005-.002c-.165.397-.33.806-.495 1.207-.249.604-.499 1.21-.748 1.822-.125.307-.25.606-.375.916-.225.556-.45 1.125-.675 1.685-.248.617-.495 1.23-.742 1.853-.089.225-.179.443-.268.669-.267.675-.535 1.367-.802 2.05-.245.626-.491 1.248-.735 1.88-.071.184-.143.361-.214.545-.232.601-.463 1.219-.695 1.825-.348.907-.695 1.812-1.042 2.73l-.207.542c-.177.47-.353.954-.53 1.426-.418 1.12-.836 2.243-1.254 3.378-.098.267-.197.526-.295.794-.145.395-.288.803-.433 1.198a731.727 731.727 0 0 0-1.458 4.041c-.131.369-.264.726-.395 1.096-.087.247-.175.503-.263.75a834.395 834.395 0 0 0-2.261 6.463c-.021.064-.044.125-.065.188l-.011.034a829.852 829.852 0 0 0-2.521 7.46c-.102.304-.204.599-.305.904-.085.254-.169.521-.253.775a844.8 844.8 0 0 0-2.709 8.32l-.144.442c-.08.248-.157.506-.236.754-.614 1.931-1.224 3.91-1.836 5.871l15.676-16.555 33.029-34.879.309-.324.186.177.248-.072.128.426 13.69 46.044 8.461 28.452c.254-.802.503-1.627.757-2.424l.144-.446a847.246 847.246 0 0 1 2.656-8.167l.463-1.404a803.236 803.236 0 0 1 2.475-7.332c.2-.584.401-1.165.604-1.746.565-1.64 1.134-3.266 1.703-4.879.206-.583.411-1.168.617-1.748a700.303 700.303 0 0 1 2.195-6.092c.429-1.17.86-2.324 1.29-3.479.195-.527.392-1.063.588-1.586.35-.931.7-1.845 1.05-2.765.282-.741.564-1.489.847-2.223.316-.821.632-1.626.949-2.439.316-.81.631-1.624.947-2.424 1.18-2.98 2.36-5.898 3.546-8.75l.468-1.114c.438-1.042.873-2.078 1.31-3.102.265-.619.528-1.228.792-1.84.315-.729.633-1.458.948-2.179.76-1.735 1.521-3.45 2.283-5.127.117-.259.235-.507.353-.766a406.33 406.33 0 0 1 1.98-4.262c.368-.778.734-1.552 1.103-2.316.164-.34.327-.684.492-1.021.179-.37.358-.728.538-1.094a315.64 315.64 0 0 1 2.384-4.765c.159-.31.317-.626.476-.933a267.636 267.636 0 0 1 3.739-6.989l.454-.82c.591-1.052 1.18-2.088 1.771-3.101a195.849 195.849 0 0 1 1.908-3.206 160.486 160.486 0 0 1 2.35-3.747l.217-.34a146.538 146.538 0 0 1 2.588-3.851c.675-.969 1.344-1.899 2.007-2.796.391-.528.775-1.019 1.162-1.521.407-.529.815-1.068 1.219-1.57 9.702-12.634 15.856-16.115 21.365-15.703z"/>
 <path fill="#8cc63f" d="M378 587.073c-.025-.018-.05-.04-.075-.058a17.62 17.62 0 0 1-1.233-.999c-.063-.056-.124-.118-.186-.176a18.678 18.678 0 0 1-.886-.875c-.087-.092-.177-.167-.264-.261l.03.012c-3.525-3.849-6.533-10.268-9.064-22.219-.005-.026-.003-.048-.009-.075-6.667-25.46-8.231-69.304-3.211-128.055.345-4.043.72-8.112 1.119-12.203.013-.122.023-.241.035-.362.391-3.988.809-7.997 1.249-12.022l.075-.693c.433-3.94.892-7.902 1.371-11.875.039-.318.075-.635.113-.953.474-3.903.971-7.819 1.488-11.746l.153-1.173c.522-3.95 1.068-7.91 1.633-11.878l.18-1.275c.563-3.931 1.149-7.87 1.751-11.815.072-.467.141-.934.213-1.4.6-3.899 1.22-7.803 1.856-11.707.085-.517.167-1.035.253-1.552.634-3.864 1.288-7.728 1.957-11.591l.256-1.483a1361.661 1361.661 0 0 1 3.229-17.823l.232-1.236a1410.655 1410.655 0 0 1 3.461-17.713l.275-1.355a1411.844 1411.844 0 0 1 6.108-28.535l.146-.657c.813-3.604 1.642-7.19 2.479-10.761l.34-1.457c.471-1.993.95-3.966 1.427-5.947l-20.836-70.068-52.685 55.637c-.494 2.138-.997 4.271-1.48 6.415l-.038.177a1346.137 1346.137 0 0 0-3.097 14.086c-.299 1.393-.583 2.789-.877 4.184a1371.98 1371.98 0 0 0-2.065 9.907c-.079.388-.164.775-.243 1.163-.179.884-.341 1.768-.518 2.653-.906 4.512-1.789 9.025-2.647 13.538-.299 1.572-.599 3.141-.892 4.712a1386.043 1386.043 0 0 0-3.034 16.746l-.006.037c-.233 1.336-.448 2.666-.677 4-.529 3.099-1.061 6.197-1.566 9.286-.229 1.396-.44 2.783-.664 4.177-.483 3.012-.97 6.026-1.431 9.026-.242 1.584-.465 3.156-.702 4.735-.418 2.796-.842 5.596-1.24 8.378-.25 1.744-.477 3.474-.719 5.211-.344 2.485-.699 4.979-1.026 7.45-.015.111-.028.224-.042.335-.32 2.417-.612 4.811-.916 7.214-.244 1.938-.501 3.888-.735 5.816-.304 2.512-.581 4.999-.867 7.496-.206 1.798-.426 3.611-.622 5.4-.292 2.66-.554 5.288-.823 7.927-.164 1.599-.343 3.214-.498 4.806-.412 4.209-.795 8.389-1.149 12.533-5.635 65.953-3.251 115.342 6.717 139.059 3.224 7.678 7.119 12.371 11.583 14.109l68.966 26.875a19.034 19.034 0 0 1-1.672-1.102z"/>
 <path fill="#fbb03b" d="M661.91 176.84c-.004.031-.01.063-.013.094a17.813 17.813 0 0 1-.249 1.568c-.017.083-.039.167-.06.249-.089.397-.194.798-.313 1.204-.036.122-.057.237-.095.359 0-.011-.003-.021-.003-.032-1.571 4.978-5.627 10.792-14.711 18.96-.021.018-.039.027-.061.045-18.715 18.504-55.903 41.78-109.292 66.809a1040.521 1040.521 0 0 1-11.128 5.132c-.112.051-.221.102-.333.152a1059.203 1059.203 0 0 1-11.036 4.93l-.638.283a1129.277 1129.277 0 0 1-10.968 4.75l-.882.378c-3.619 1.541-7.26 3.069-10.917 4.585-.364.151-.728.304-1.094.454-3.681 1.522-7.384 3.03-11.101 4.524l-1.195.482a1308.693 1308.693 0 0 1-11.107 4.391c-.442.172-.88.345-1.321.516-3.676 1.43-7.366 2.844-11.065 4.246-.49.186-.981.373-1.472.558a1380.798 1380.798 0 0 1-11.015 4.1l-1.413.521a1373.536 1373.536 0 0 1-18.239 6.533 1410.445 1410.445 0 0 1-18.381 6.297c-4.302 1.44-8.602 2.856-12.896 4.248l-1.451.471a1378.48 1378.48 0 0 1-13.42 4.258c-.213.067-.428.137-.641.202a1257.913 1257.913 0 0 1-10.559 3.233l-1.431.435c-1.961.591-3.91 1.16-5.863 1.737l-50.263 53.079 74.525 17.809c2.099-.643 4.198-1.273 6.295-1.926.059-.019.115-.036.172-.056a1384.6 1384.6 0 0 0 13.748-4.36c1.355-.438 2.707-.89 4.062-1.332 3.208-1.047 6.415-2.097 9.613-3.166.375-.125.752-.245 1.126-.371.855-.286 1.703-.588 2.558-.877a1592.365 1592.365 0 0 0 17.574-6.06 1376.568 1376.568 0 0 0 15.849-5.685l.171-.062.035-.013c1.275-.468 2.533-.946 3.803-1.414 2.948-1.091 5.897-2.181 8.825-3.288 1.323-.499 2.629-1.01 3.949-1.513 2.85-1.088 5.704-2.172 8.532-3.275 1.494-.582 2.966-1.173 4.452-1.758 2.63-1.037 5.266-2.069 7.875-3.116 1.636-.656 3.248-1.323 4.872-1.983 2.324-.943 4.662-1.884 6.966-2.837.104-.042.207-.088.312-.13 2.251-.933 4.473-1.876 6.706-2.813 1.799-.758 3.615-1.511 5.403-2.272 2.326-.992 4.619-1.996 6.926-2.998 1.66-.722 3.341-1.436 4.987-2.161 2.449-1.077 4.856-2.165 7.275-3.25 1.468-.657 2.954-1.311 4.412-1.972 3.851-1.748 7.661-3.506 11.428-5.271 59.937-28.098 101.516-54.857 117.071-75.348 5.036-6.63 7.153-12.35 6.427-17.086l-11.209-73.164c0 .658-.038 1.323-.114 1.997z"/>
 <path fill="#0071bc" d="M164.678 136.086c.029-.011.061-.022.088-.036.477-.206.966-.399 1.482-.568.079-.026.164-.049.245-.073.389-.122.79-.231 1.2-.33.123-.029.234-.07.358-.098-.009.006-.017.013-.026.018 5.096-1.128 12.159-.522 23.774 3.261.026.009.044.021.07.03 25.383 6.956 64.135 27.523 112.503 61.245 3.33 2.322 6.666 4.681 10.008 7.071l.298.212c3.258 2.332 6.52 4.698 9.788 7.092.188.137.375.272.563.412 3.196 2.345 6.396 4.722 9.597 7.123.257.193.513.383.769.576 3.144 2.363 6.288 4.752 9.429 7.161l.94.72c3.159 2.427 6.316 4.88 9.468 7.353l1.015.793c3.124 2.454 6.243 4.931 9.356 7.424.37.297.738.59 1.107.887 3.076 2.468 6.147 4.957 9.21 7.459l1.218.995c3.029 2.481 6.048 4.98 9.059 7.49l1.158.963a1383.618 1383.618 0 0 1 14.775 12.528c4.569 3.927 9.107 7.881 13.61 11.854l1.036.916a1440.469 1440.469 0 0 1 11.258 10.065c3.495 3.157 6.962 6.322 10.398 9.493l.496.454c2.715 2.507 5.405 5.017 8.08 7.527.364.342.728.684 1.091 1.023 1.492 1.402 2.961 2.806 4.437 4.208l71.099 16.989-21.839-73.444c-1.606-1.497-3.201-2.999-4.816-4.49a5.268 5.268 0 0 0-.135-.121c-3.529-3.259-7.081-6.5-10.649-9.726-1.058-.956-2.123-1.899-3.184-2.852a1375.106 1375.106 0 0 0-7.548-6.742c-.296-.263-.591-.529-.887-.79-.675-.598-1.36-1.181-2.038-1.777a1400.877 1400.877 0 0 0-14.034-12.189 1381.49 1381.49 0 0 0-12.847-10.882c-.047-.041-.094-.079-.139-.119l-.028-.023c-1.042-.87-2.087-1.72-3.128-2.586-2.419-2.008-4.834-4.017-7.259-6-1.093-.896-2.189-1.771-3.286-2.662-2.366-1.925-4.732-3.854-7.101-5.751-1.252-1.004-2.5-1.983-3.749-2.977-2.212-1.76-4.425-3.527-6.637-5.263-1.386-1.088-2.768-2.151-4.153-3.228-1.979-1.54-3.962-3.095-5.939-4.614-.089-.07-.18-.136-.268-.205-1.934-1.484-3.862-2.936-5.79-4.4-1.556-1.179-3.116-2.377-4.67-3.544-2.022-1.519-4.039-3.002-6.059-4.499-1.455-1.078-2.914-2.176-4.366-3.239-2.157-1.583-4.302-3.124-6.452-4.676-1.304-.942-2.613-1.904-3.914-2.835-3.439-2.46-6.867-4.881-10.279-7.26-54.301-37.858-98.265-60.487-123.788-63.713-8.26-1.047-14.271-.021-18.009 2.977-19.253 15.43-38.506 30.858-57.759 46.29a19.721 19.721 0 0 1 1.793-.897z"/>
 <g>
  <path fill="#8cc63f" d="M387.166 277.218c.813-3.604 4.73-21.089 5.567-24.66l.34-1.457c.471-1.993.95-3.966 1.427-5.947l-20.836-70.068-52.685 55.637c-.494 2.138-.997 4.271-1.48 6.415l-.038.177"/>
 </g>
 <g>
  <path fill="#8cc63f" d="M384 292.51a1411.844 1411.844 0 0 1 6.108-28.535l.146-.657"/>
 </g>
</svg>